<svg width="24" height="24" viewBox="0 0 24 24" fill="none" xmlns="http://www.w3.org/2000/svg">
<g id="Badge-Obat/007-stethoscope" clip-path="url(#clip0_30785_1234)">
<g id="Group">
<g id="Group_2">
<path id="Vector" d="M17.5015 1.14282H14.9234V2.73751H16.7041V6.29898C16.7041 8.98098 14.5221 11.1628 11.8403 11.1628H11.4683C8.78625 11.1628 6.60445 8.9807 6.60445 6.29898V2.73751H8.38519V1.14282H5.80711C5.36672 1.14282 5.00977 1.49978 5.00977 1.94017V6.29898C5.00977 9.86017 7.90706 12.7575 11.4683 12.7575H11.8403C15.4015 12.7575 18.2988 9.86017 18.2988 6.29898V1.94017C18.2988 1.49978 17.9419 1.14282 17.5015 1.14282Z" fill="white"/>
</g>
</g>
<g id="Group_3">
<g id="Group_4">
<path id="Vector_2" d="M14.8437 0C14.4033 0 14.0464 0.356953 14.0464 0.797344V3.02991C14.0464 3.4703 14.4033 3.82725 14.8437 3.82725C15.2841 3.82725 15.6411 3.4703 15.6411 3.02991V0.797344C15.6411 0.356953 15.2841 0 14.8437 0Z" fill="white"/>
</g>
</g>
<g id="Group_5">
<g id="Group_6">
<path id="Vector_3" d="M8.5449 0C8.10451 0 7.74756 0.356953 7.74756 0.797344V3.02991C7.74756 3.4703 8.10451 3.82725 8.5449 3.82725C8.98529 3.82725 9.34224 3.4703 9.34224 3.02991V0.797344C9.34224 0.356953 8.98529 0 8.5449 0Z" fill="white"/>
</g>
</g>
<g id="Group_7">
<g id="Group_8">
<path id="Vector_4" d="M12.505 16.4521V11.9338H10.9103V16.4521H8.3322C6.25114 16.4521 4.55811 18.1451 4.55811 20.2259C4.55811 22.307 6.26309 24 8.35878 24H8.73087C10.8119 24 12.505 22.307 12.505 20.2259V18.0468H15.2159V16.4521H12.505ZM10.9103 20.2256C10.9103 21.4272 9.93246 22.4051 8.73087 22.4051H8.35878C7.12184 22.4051 6.15279 21.448 6.15279 20.2256C6.15279 19.0241 7.13061 18.0465 8.3322 18.0465H10.9103V20.2256Z" fill="white"/>
</g>
</g>
<g id="Group_9">
<g id="Group_10">
<path id="Vector_5" d="M16.9434 14.7512C15.5661 14.7512 14.4453 15.8718 14.4453 17.2496C14.4453 18.6268 15.5659 19.7476 16.9434 19.7476C18.3209 19.7476 19.4417 18.6268 19.4417 17.2496C19.4417 15.872 18.3212 14.7512 16.9434 14.7512ZM16.9434 18.1527C16.4453 18.1527 16.04 17.7474 16.04 17.2493C16.04 16.751 16.4453 16.3457 16.9434 16.3457C17.4417 16.3457 17.847 16.751 17.847 17.2493C17.847 17.7474 17.4417 18.1527 16.9434 18.1527Z" fill="white"/>
</g>
</g>
</g>
<defs>
<clipPath id="clip0_30785_1234">
<rect width="24" height="24" fill="white"/>
</clipPath>
</defs>
</svg>
