<svg width="28" height="18" viewBox="0 0 28 18" fill="none" xmlns="http://www.w3.org/2000/svg">
<path d="M0.703918 0H27.8306V17.4115H0.703918V0Z" fill="#1E50A0"/>
<path d="M16.0174 5.43238V6.87295H20.4718L27.8306 2.1494V0H24.4818L16.0174 5.43238Z" fill="white"/>
<path d="M27.8306 0H26.1562L16.0174 6.50777V6.87295H17.5409L27.8306 0.268503V0Z" fill="#D22F27"/>
<path d="M24.4822 17.4115H27.8306V15.2616L20.4723 10.5385H16.0174V11.9786L24.4822 17.4115Z" fill="white"/>
<path d="M27.8306 17.4115V16.3361L18.7978 10.5385H16.7034L27.4114 17.4115H27.8306Z" fill="#D22F27"/>
<path d="M12.5172 11.9791V10.5385H8.0627L0.703918 15.2621V17.4115H4.05276L12.5172 11.9791Z" fill="white"/>
<path d="M0.703918 17.4115H2.37834L12.5172 10.9037V10.5385H10.9937L0.703918 17.143V17.4115Z" fill="#D22F27"/>
<path d="M4.05232 0H0.703918V2.14986L8.06226 6.87295H12.5172V5.43284L4.05232 0Z" fill="white"/>
<path d="M0.703918 0V1.07539L9.73711 6.87295H11.8311L1.12307 0H0.703918Z" fill="#D22F27"/>
<path d="M0.703918 6.41475H27.8306V10.9967H0.703918V6.41475Z" fill="white"/>
<path d="M12.0796 0H16.4549V17.4115H12.0796V0Z" fill="white"/>
<path d="M0.703918 7.33115H27.8306V10.0803H0.703918V7.33115Z" fill="#D22F27"/>
<path d="M12.9547 0H15.5799V17.4115H12.9547V0Z" fill="#D22F27"/>
</svg>
