<svg width="155" height="27" viewBox="0 0 155 27" fill="none" xmlns="http://www.w3.org/2000/svg">
<path d="M0.155 13.68C0.155 11.2533 0.68 9.095 1.73 7.205C2.78 5.29167 4.23833 3.81 6.105 2.76C7.995 1.68667 10.13 1.15 12.51 1.15C15.4267 1.15 17.9233 1.92 20 3.46C22.0767 5 23.465 7.1 24.165 9.76H17.585C17.095 8.73333 16.395 7.95167 15.485 7.415C14.5983 6.87833 13.5833 6.61 12.44 6.61C10.5967 6.61 9.10333 7.25167 7.96 8.535C6.81667 9.81833 6.245 11.5333 6.245 13.68C6.245 15.8267 6.81667 17.5417 7.96 18.825C9.10333 20.1083 10.5967 20.75 12.44 20.75C13.5833 20.75 14.5983 20.4817 15.485 19.945C16.395 19.4083 17.095 18.6267 17.585 17.6H24.165C23.465 20.26 22.0767 22.36 20 23.9C17.9233 25.4167 15.4267 26.175 12.51 26.175C10.13 26.175 7.995 25.65 6.105 24.6C4.23833 23.5267 2.78 22.045 1.73 20.155C0.68 18.265 0.155 16.1067 0.155 13.68ZM36.0552 26.28C34.1418 26.28 32.4152 25.8717 30.8752 25.055C29.3585 24.2383 28.1568 23.0717 27.2702 21.555C26.4068 20.0383 25.9752 18.265 25.9752 16.235C25.9752 14.2283 26.4185 12.4667 27.3052 10.95C28.1918 9.41 29.4052 8.23167 30.9452 7.415C32.4852 6.59833 34.2118 6.19 36.1252 6.19C38.0385 6.19 39.7652 6.59833 41.3052 7.415C42.8452 8.23167 44.0585 9.41 44.9452 10.95C45.8318 12.4667 46.2752 14.2283 46.2752 16.235C46.2752 18.2417 45.8202 20.015 44.9102 21.555C44.0235 23.0717 42.7985 24.2383 41.2352 25.055C39.6952 25.8717 37.9685 26.28 36.0552 26.28ZM36.0552 21.1C37.1985 21.1 38.1668 20.68 38.9602 19.84C39.7768 19 40.1852 17.7983 40.1852 16.235C40.1852 14.6717 39.7885 13.47 38.9952 12.63C38.2252 11.79 37.2685 11.37 36.1252 11.37C34.9585 11.37 33.9902 11.79 33.2202 12.63C32.4502 13.4467 32.0652 14.6483 32.0652 16.235C32.0652 17.7983 32.4385 19 33.1852 19.84C33.9552 20.68 34.9118 21.1 36.0552 21.1Z" fill="#4498AD"/>
<path d="M65.0953 9.2C64.652 8.38333 64.0103 7.765 63.1703 7.345C62.3536 6.90166 61.3853 6.68 60.2653 6.68C58.3286 6.68 56.777 7.32167 55.6103 8.605C54.4436 9.865 53.8603 11.5567 53.8603 13.68C53.8603 15.9433 54.467 17.7167 55.6803 19C56.917 20.26 58.6086 20.89 60.7553 20.89C62.2253 20.89 63.462 20.5167 64.4653 19.77C65.492 19.0233 66.2386 17.95 66.7053 16.55H59.1103V12.14H72.1303V17.705C71.687 19.1983 70.9286 20.5867 69.8553 21.87C68.8053 23.1533 67.4636 24.1917 65.8303 24.985C64.197 25.7783 62.3536 26.175 60.3003 26.175C57.8736 26.175 55.7036 25.65 53.7903 24.6C51.9003 23.5267 50.4186 22.045 49.3453 20.155C48.2953 18.265 47.7703 16.1067 47.7703 13.68C47.7703 11.2533 48.2953 9.095 49.3453 7.205C50.4186 5.29167 51.9003 3.81 53.7903 2.76C55.6803 1.68667 57.8386 1.15 60.2653 1.15C63.2053 1.15 65.6786 1.86167 67.6853 3.285C69.7153 4.70833 71.057 6.68 71.7103 9.2H65.0953ZM94.0655 6.47V26H88.0805V23.34C87.4738 24.2033 86.6455 24.9033 85.5955 25.44C84.5688 25.9533 83.4255 26.21 82.1655 26.21C80.6721 26.21 79.3538 25.8833 78.2105 25.23C77.0671 24.5533 76.1805 23.585 75.5505 22.325C74.9205 21.065 74.6055 19.5833 74.6055 17.88V6.47H80.5555V17.075C80.5555 18.3817 80.8938 19.3967 81.5705 20.12C82.2471 20.8433 83.1571 21.205 84.3005 21.205C85.4671 21.205 86.3888 20.8433 87.0655 20.12C87.7421 19.3967 88.0805 18.3817 88.0805 17.075V6.47H94.0655ZM96.5094 16.2C96.5094 14.1933 96.8828 12.4317 97.6294 10.915C98.3994 9.39833 99.4378 8.23167 100.744 7.415C102.051 6.59833 103.509 6.19 105.119 6.19C106.496 6.19 107.698 6.47 108.724 7.03C109.774 7.59 110.579 8.325 111.139 9.235V6.47H117.124V26H111.139V23.235C110.556 24.145 109.739 24.88 108.689 25.44C107.663 26 106.461 26.28 105.084 26.28C103.498 26.28 102.051 25.8717 100.744 25.055C99.4378 24.215 98.3994 23.0367 97.6294 21.52C96.8828 19.98 96.5094 18.2067 96.5094 16.2ZM111.139 16.235C111.139 14.7417 110.719 13.5633 109.879 12.7C109.063 11.8367 108.059 11.405 106.869 11.405C105.679 11.405 104.664 11.8367 103.824 12.7C103.008 13.54 102.599 14.7067 102.599 16.2C102.599 17.6933 103.008 18.8833 103.824 19.77C104.664 20.6333 105.679 21.065 106.869 21.065C108.059 21.065 109.063 20.6333 109.879 19.77C110.719 18.9067 111.139 17.7283 111.139 16.235ZM126.774 9.725C127.474 8.65167 128.349 7.81167 129.399 7.205C130.449 6.575 131.616 6.26 132.899 6.26V12.595H131.254C129.761 12.595 128.641 12.9217 127.894 13.575C127.148 14.205 126.774 15.325 126.774 16.935V26H120.789V6.47H126.774V9.725ZM133.905 16.2C133.905 14.1933 134.278 12.4317 135.025 10.915C135.795 9.39833 136.833 8.23167 138.14 7.415C139.447 6.59833 140.905 6.19 142.515 6.19C143.798 6.19 144.965 6.45833 146.015 6.995C147.088 7.53167 147.928 8.255 148.535 9.165V0.0999997H154.52V26H148.535V23.2C147.975 24.1333 147.17 24.88 146.12 25.44C145.093 26 143.892 26.28 142.515 26.28C140.905 26.28 139.447 25.8717 138.14 25.055C136.833 24.215 135.795 23.0367 135.025 21.52C134.278 19.98 133.905 18.2067 133.905 16.2ZM148.535 16.235C148.535 14.7417 148.115 13.5633 147.275 12.7C146.458 11.8367 145.455 11.405 144.265 11.405C143.075 11.405 142.06 11.8367 141.22 12.7C140.403 13.54 139.995 14.7067 139.995 16.2C139.995 17.6933 140.403 18.8833 141.22 19.77C142.06 20.6333 143.075 21.065 144.265 21.065C145.455 21.065 146.458 20.6333 147.275 19.77C148.115 18.9067 148.535 17.7283 148.535 16.235Z" fill="#132DD3"/>
</svg>
