<svg width="22" height="23" viewBox="0 0 22 23" fill="none" xmlns="http://www.w3.org/2000/svg">
<path d="M10.9996 12.8108C12.5792 12.8108 13.8596 11.5304 13.8596 9.95082C13.8596 8.37129 12.5792 7.09082 10.9996 7.09082C9.42011 7.09082 8.13965 8.37129 8.13965 9.95082C8.13965 11.5304 9.42011 12.8108 10.9996 12.8108Z" fill="white"/>
<path fill-rule="evenodd" clip-rule="evenodd" d="M10.9996 7.84082C9.83433 7.84082 8.88965 8.7855 8.88965 9.95082C8.88965 11.1161 9.83433 12.0608 10.9996 12.0608C12.165 12.0608 13.1096 11.1161 13.1096 9.95082C13.1096 8.7855 12.165 7.84082 10.9996 7.84082ZM7.38965 9.95082C7.38965 7.95707 9.0059 6.34082 10.9996 6.34082C12.9934 6.34082 14.6096 7.95707 14.6096 9.95082C14.6096 11.9446 12.9934 13.5608 10.9996 13.5608C9.0059 13.5608 7.38965 11.9446 7.38965 9.95082Z" fill="#132DD3"/>
<path d="M3.31823 8.28242C5.12406 0.344087 16.8849 0.353254 18.6816 8.29159C19.7357 12.9483 16.8391 16.8899 14.2999 19.3283C12.4574 21.1066 9.5424 21.1066 7.69073 19.3283C5.16073 16.8899 2.26406 12.9391 3.31823 8.28242Z" fill="white"/>
<path fill-rule="evenodd" clip-rule="evenodd" d="M11.0028 3.08325C7.89431 3.08115 4.86077 4.88359 4.04964 8.44838C3.08851 12.6949 5.71847 16.3856 8.21041 18.7875C9.77256 20.2876 12.2279 20.2857 13.7791 18.7886L13.7804 18.7873C16.2815 16.3855 18.9114 12.7037 17.9501 8.45718C17.1432 4.89216 14.1116 3.08535 11.0028 3.08325ZM19.4131 8.12599C18.4232 3.7527 14.6762 1.58574 11.0038 1.58325C7.33144 1.58077 3.58176 3.74278 2.58692 8.11606C1.44005 13.1822 4.60252 17.3936 7.17028 19.8683L7.17122 19.8692C9.31222 21.9254 12.6863 21.9274 14.8202 19.8685C17.3972 17.3935 20.56 13.1923 19.4131 8.12599Z" fill="#132DD3"/>
<path d="M13 10C13 11.1046 12.1046 12 11 12C9.89543 12 9 11.1046 9 10C9 8.89543 9.89543 8 11 8C12.1046 8 13 8.89543 13 10Z" fill="#132DD3"/>
</svg>
