<svg width="47" height="31" viewBox="0 0 47 31" fill="none" xmlns="http://www.w3.org/2000/svg">
<path d="M29.9228 2.79854C26.1914 -0.932848 20.1426 -0.932848 16.4505 2.79854C12.7191 -0.932848 6.67034 -0.932848 2.97822 2.79854C-0.988835 6.7656 -0.988835 13.2072 2.97822 17.1742L14.7223 28.9183C15.7042 29.9002 17.2753 29.9002 18.218 28.9183L29.9621 17.1742C33.8899 13.2072 33.8899 6.7656 29.9228 2.79854ZM27.0948 14.5033L16.4112 25.1869L5.76695 14.5033C4.54934 13.2857 3.84233 11.636 3.84233 9.9471C3.84233 8.45455 4.39222 7.04055 5.33489 5.90149C6.35611 4.68388 7.84867 3.9376 9.41978 3.89832C11.0302 3.81977 12.562 4.40893 13.6618 5.54799L15.4686 7.35477C15.9792 7.86538 16.804 7.86538 17.2753 7.35477L19.0036 5.62654C20.0641 4.56604 21.4781 3.89832 23.0099 3.89832C24.5417 3.85904 26.0343 4.44821 27.0948 5.54799C28.3124 6.7656 28.9801 8.37599 28.9408 10.1042C28.9801 11.7539 28.2731 13.325 27.0948 14.5033Z" fill="#4498AD"/>
<path d="M43.3954 2.79854C39.6641 -0.932848 33.6153 -0.932848 29.9232 2.79854C26.1918 -0.932848 20.143 -0.932848 16.4509 2.79854C12.4838 6.7656 12.4838 13.2072 16.4509 17.1742L28.1949 28.9183C29.1769 29.9002 30.748 29.9002 31.6907 28.9183L43.4347 17.1742C47.3625 13.2072 47.3625 6.7656 43.3954 2.79854ZM40.5674 14.5033L29.8839 25.1869L19.2396 14.5033C18.022 13.2857 17.315 11.636 17.315 9.9471C17.315 8.45455 17.8649 7.04055 18.8075 5.90149C19.8288 4.68388 21.3213 3.9376 22.8924 3.89832C24.5028 3.81977 26.0347 4.40893 27.1344 5.54799L28.9412 7.35477C29.4518 7.86538 30.2767 7.86538 30.748 7.35477L32.4762 5.62654C33.5367 4.56604 34.9507 3.89832 36.4825 3.89832C38.0144 3.85904 39.5069 4.44821 40.5674 5.54799C41.7851 6.7656 42.4528 8.37599 42.4135 10.1042C42.4921 11.7539 41.7458 13.325 40.5674 14.5033Z" fill="#132DD3"/>
<path d="M43.6298 16.9385C45.1916 16.9385 46.4578 15.6723 46.4578 14.1105C46.4578 12.5486 45.1916 11.2825 43.6298 11.2825C42.0679 11.2825 40.8018 12.5486 40.8018 14.1105C40.8018 15.6723 42.0679 16.9385 43.6298 16.9385Z" fill="white"/>
<path d="M45.5954 16.0744L30.1199 31L26.7027 30.1359L22.8535 24.2049L25.9172 21.1412L29.6486 21.7697L33.4585 19.7665L38.5646 13.6785L45.5954 16.0744Z" fill="#F4F6FF"/>
<path d="M37.9358 17.0169L32.7119 14.8174L31.2979 16.2707L35.1864 19.7664L37.9358 17.0169Z" fill="#132DD3"/>
<path d="M29.9228 25.187L25.4451 23.1053L23.874 24.5978L28.1553 28.8791C29.1372 29.8611 30.7084 29.8611 31.651 28.8791L45.0055 15.2497C45.791 14.4642 45.7517 13.2073 44.9662 12.461C44.2199 11.754 43.0023 11.754 42.256 12.5003L29.9228 25.187Z" fill="#132DD3"/>
<path d="M37.9358 17.0169L32.7119 14.8174L31.2979 16.2707L35.1864 19.7664L37.9358 17.0169Z" fill="url(#paint0_linear_30022_11338)"/>
<path d="M26.5459 25.1477L25.4854 27.6615L26.1924 28.3292L27.8813 26.4439L26.5459 25.1477Z" fill="#132DD3"/>
<path d="M26.5459 25.1477L25.4854 27.6615L26.1924 28.3292L27.8813 26.4439L26.5459 25.1477Z" fill="url(#paint1_linear_30022_11338)"/>
<path d="M23.481 18.1167L20.1816 21.3768L22.9311 24.1262L26.2697 20.7876L23.481 18.1167Z" fill="#4498AD"/>
<defs>
<linearGradient id="paint0_linear_30022_11338" x1="32.8617" y1="14.6629" x2="37.4878" y2="19.879" gradientUnits="userSpaceOnUse">
<stop stop-color="white" stop-opacity="0"/>
<stop offset="1"/>
</linearGradient>
<linearGradient id="paint1_linear_30022_11338" x1="25.4156" y1="27.5761" x2="27.9304" y2="25.3457" gradientUnits="userSpaceOnUse">
<stop stop-color="white" stop-opacity="0"/>
<stop offset="1"/>
</linearGradient>
</defs>
</svg>
