<svg width="16" height="16" viewBox="0 0 16 16" fill="none" xmlns="http://www.w3.org/2000/svg">
<g id="magic-star">
<path id="Vector" d="M8.29723 2.30378L9.36729 4.23883C9.5139 4.50445 9.88186 4.75677 10.1845 4.79088L11.9856 5.01729C13.1389 5.15975 13.4363 5.9782 12.6514 6.83548L11.3143 8.2878C11.0911 8.53118 10.9752 8.99548 11.0649 9.31417L11.5334 11.024C11.9019 12.3739 11.2011 12.9334 9.96958 12.2704L8.24921 11.3439C7.93589 11.1746 7.4382 11.1992 7.14384 11.3894L5.50612 12.4494C4.33374 13.2071 3.58771 12.7083 3.84496 11.3339L4.17439 9.59447C4.23589 9.26933 4.08844 8.8156 3.84506 8.59238L2.38477 7.25309C1.53255 6.46533 1.76179 5.62573 2.89742 5.38769L4.67062 5.0173C4.96987 4.95229 5.31668 4.67797 5.43844 4.39887L6.3469 2.37903C6.84347 1.29078 7.71952 1.25649 8.29723 2.30378Z" fill="#FFBD39"/>
</g>
</svg>
