<svg width="21" height="22" viewBox="0 0 21 22" fill="none" xmlns="http://www.w3.org/2000/svg">
<g id="vuesax/outline/search-normal">
<g id="search-normal">
<path id="Vector" d="M10.0625 19.5312C5.11875 19.5312 1.09375 15.5063 1.09375 10.5625C1.09375 5.61875 5.11875 1.59375 10.0625 1.59375C15.0063 1.59375 19.0312 5.61875 19.0312 10.5625C19.0312 15.5063 15.0063 19.5312 10.0625 19.5312ZM10.0625 2.90625C5.83625 2.90625 2.40625 6.345 2.40625 10.5625C2.40625 14.78 5.83625 18.2188 10.0625 18.2188C14.2887 18.2188 17.7188 14.78 17.7188 10.5625C17.7188 6.345 14.2887 2.90625 10.0625 2.90625Z" fill="white"/>
<path id="Vector_2" d="M19.2498 20.4063C19.0835 20.4063 18.9173 20.345 18.786 20.2138L17.036 18.4638C16.7823 18.21 16.7823 17.79 17.036 17.5363C17.2898 17.2825 17.7098 17.2825 17.9635 17.5363L19.7135 19.2863C19.9673 19.54 19.9673 19.96 19.7135 20.2138C19.5823 20.345 19.416 20.4063 19.2498 20.4063Z" fill="white"/>
</g>
</g>
</svg>
