<svg width="21" height="20" viewBox="0 0 21 20" fill="none" xmlns="http://www.w3.org/2000/svg">
<path d="M10.0469 0C15.5958 0 20.0939 4.33159 20.0939 9.67304C20.0939 15.0145 15.5958 19.3461 10.0469 19.3461C4.49801 19.3461 0 15.0145 0 9.67304C0 4.33159 4.49801 0 10.0469 0ZM10.0469 1.6125C5.43037 1.6125 1.67482 5.22828 1.67482 9.67304C1.67482 14.1178 5.43037 17.7336 10.0469 17.7336C14.6635 17.7336 18.419 14.1178 18.419 9.67304C18.419 5.22828 14.6635 1.6125 10.0469 1.6125ZM10.0469 13.0586C10.6018 13.0586 11.0516 13.4917 11.0516 14.0259C11.0516 14.5602 10.6018 14.9932 10.0469 14.9932C9.49204 14.9932 9.04224 14.5602 9.04224 14.0259C9.04224 13.4917 9.49204 13.0586 10.0469 13.0586ZM10.0469 4.59469C11.5729 4.59469 12.8098 5.78566 12.8098 7.25478C12.8098 8.23253 12.5109 8.77732 11.7538 9.53626L11.5844 9.70235C10.9596 10.3039 10.8005 10.5594 10.8005 11.124C10.8005 11.5247 10.4631 11.8495 10.0469 11.8495C9.63079 11.8495 9.29341 11.5247 9.29341 11.124C9.29341 10.1462 9.59231 9.60146 10.3494 8.84251L10.5188 8.67643C11.1437 8.07486 11.3028 7.8194 11.3028 7.25478C11.3028 6.58699 10.7406 6.04565 10.0469 6.04565C9.39669 6.04565 8.8619 6.52144 8.7976 7.13115L8.79106 7.25478C8.79106 7.65545 8.45369 7.98026 8.03754 7.98026C7.62139 7.98026 7.28402 7.65545 7.28402 7.25478C7.28402 5.78566 8.521 4.59469 10.0469 4.59469Z" fill="#3049D9"/>
</svg>
